HIERARCHY
ROOT Hips
{
	OFFSET 62.890800 8.863803 43.568401
	CHANNELS 6 Xposition Yposition Zposition Zrotation Xrotation Yrotation
	JOINT Chest
	{
		OFFSET -0.160400 1.630001 7.806301
		CHANNELS 6 Xposition Yposition Zposition Zrotation Xrotation Yrotation
		JOINT Chest2
		{
			OFFSET 0.000000 0.000000 3.197998
			CHANNELS 6 Xposition Yposition Zposition Zrotation Xrotation Yrotation
			JOINT Neck
			{
				OFFSET 0.000000 0.000001 7.440701
				CHANNELS 6 Xposition Yposition Zposition Zrotation Xrotation Yrotation
				JOINT Head
				{
					OFFSET 0.000000 0.000000 2.173901
					CHANNELS 6 Xposition Yposition Zposition Zrotation Xrotation Yrotation
					End Site
					{
						OFFSET 0.000000 0.000001 10.420303
					}
				}
			}
			JOINT LeftCollar
			{
				OFFSET 2.426399 -1.880099 4.759399
				CHANNELS 6 Xposition Yposition Zposition Zrotation Xrotation Yrotation
				JOINT LeftShoulder
				{
					OFFSET 4.420197 0.000000 0.000000
					CHANNELS 6 Xposition Yposition Zposition Zrotation Xrotation Yrotation
					JOINT LeftElbow
					{
						OFFSET 0.000000 -0.000001 -10.347099
						CHANNELS 6 Xposition Yposition Zposition Zrotation Xrotation Yrotation
						JOINT LeftWrist
						{
							OFFSET 0.000000 -0.000001 -12.496300
							CHANNELS 6 Xposition Yposition Zposition Zrotation Xrotation Yrotation
							End Site
							{
								OFFSET 0.000000 0.000000 -2.173901
							}
						}
					}
				}
			}
			JOINT RightCollar
			{
				OFFSET -2.781502 -1.903799 5.072601
				CHANNELS 6 Xposition Yposition Zposition Zrotation Xrotation Yrotation
				JOINT RightShoulder
				{
					OFFSET -4.012100 0.000000 0.000000
					CHANNELS 6 Xposition Yposition Zposition Zrotation Xrotation Yrotation
					JOINT RightElbow
					{
						OFFSET 0.000000 -0.000001 -10.346600
						CHANNELS 6 Xposition Yposition Zposition Zrotation Xrotation Yrotation
						JOINT RightWrist
						{
							OFFSET 0.000000 -0.000001 -12.562599
							CHANNELS 6 Xposition Yposition Zposition Zrotation Xrotation Yrotation
							End Site
							{
								OFFSET 0.000000 0.000000 -2.173901
							}
						}
					}
				}
			}
		}
	}
	JOINT LeftHip
	{
		OFFSET 2.047997 -0.047200 -2.693199
		CHANNELS 6 Xposition Yposition Zposition Zrotation Xrotation Yrotation
		JOINT LeftKnee
		{
			OFFSET 0.000000 -0.000001 -18.824400
			CHANNELS 6 Xposition Yposition Zposition Zrotation Xrotation Yrotation
			JOINT LeftAnkle
			{
				OFFSET 0.000000 -0.000002 -19.078199
				CHANNELS 6 Xposition Yposition Zposition Zrotation Xrotation Yrotation
				End Site
				{
					OFFSET 0.000000 -9.342100 0.000001
				}
			}
		}
	}
	JOINT RightHip
	{
		OFFSET -2.129898 -0.022300 -2.538300
		CHANNELS 6 Xposition Yposition Zposition Zrotation Xrotation Yrotation
		JOINT RightKnee
		{
			OFFSET 0.000000 -0.000001 -18.644600
			CHANNELS 6 Xposition Yposition Zposition Zrotation Xrotation Yrotation
			JOINT RightAnkle
			{
				OFFSET 0.000000 -0.000002 -18.801399
				CHANNELS 6 Xposition Yposition Zposition Zrotation Xrotation Yrotation
				End Site
				{
					OFFSET 0.000000 -8.914600 0.000001
				}
			}
		}
	}
}
MOTION
Frames: 4
Frame Time: 0.041667
68.684090 32.094608 35.808174 -485.553504 28.981374 3.680757 -0.160409 1.630003 7.806295 -50.298534 20.877561 -0.272828 0.000011 0.000007 3.198000 23.716389 -8.684121 2.206515 0.000011 0.000000 7.440712 12.419063 18.012389 -9.287167 -0.000007 0.000002 2.173905 3.376339 0.473744 5.880627 2.426419 -1.880101 4.759411 -169.505993 183.933033 -188.843597 4.420185 -0.000004 -0.000003 -63.212322 11.570275 -114.253991 0.000003 -0.000005 -10.347100 531.789240 -163.948965 -543.157734 -0.000005 0.000005 -12.496299 340.989736 153.999592 201.980783 -2.781487 -1.903796 5.072608 -181.582901 -187.773648 160.488135 -4.012088 -0.000003 0.000010 -3.042713 33.733792 403.512796 0.000009 0.000000 -10.346595 -358.353579 -3.976043 -2.894404 0.000004 0.000001 -12.562597 1608.674130 545.283781 -529.587460 2.047991 -0.047194 -2.693207 485.395152 -20.224441 66.112802 0.000003 0.000000 -18.824400 12.797434 158.997365 -90.937699 0.000001 -0.000000 -19.078199 -311.025669 -27.532161 40.436964 -2.129900 -0.022294 -2.538303 -468.100622 -34.384812 -84.215215 -0.000000 0.000001 -18.644600 -39.111483 -214.932365 121.396654 0.000003 -0.000003 -18.801409 170.066738 171.675152 156.811472
68.617996 32.083004 35.928673 -485.370618 28.682929 3.961898 -0.160408 1.630007 7.806307 -50.426566 21.393872 -0.288077 0.000001 0.000000 3.197997 22.531455 -8.621247 2.058106 0.000000 -0.000002 7.440695 14.940943 17.028461 -9.618986 0.000001 0.000006 2.173898 3.806140 0.323736 6.647020 2.426404 -1.880104 4.759392 -169.840426 181.590100 -188.615046 4.420196 -0.000005 -0.000004 -66.926981 9.610075 -115.801623 0.000010 -0.000005 -10.347093 534.612676 -159.800581 -543.109103 -0.000009 0.000006 -12.496299 325.603177 158.256904 205.442104 -2.781498 -1.903801 5.072603 -181.074599 -187.485974 159.902187 -4.012092 -0.000006 0.000001 -2.507010 33.461059 400.273073 0.000003 -0.000000 -10.346600 -358.254241 -4.388849 -3.062768 0.000009 -0.000005 -12.562597 1610.694773 545.541088 -530.556035 2.047989 -0.047191 -2.693199 485.905012 -19.105709 66.162943 -0.000002 -0.000001 -18.824404 10.869286 161.198967 -91.325005 0.000001 -0.000003 -19.078199 -308.676575 -27.791089 41.927048 -2.129902 -0.022296 -2.538300 -467.461698 -34.689178 -83.188788 -0.000000 0.000005 -18.644600 -40.296088 -215.755144 122.069127 -0.000000 -0.000008 -18.801401 170.834697 171.683485 157.474232
68.560699 32.093395 36.061378 -484.627002 28.771786 4.067083 -0.160389 1.629996 7.806308 -50.977301 21.727006 -0.557468 -0.000001 0.000000 3.197999 21.300700 -8.515181 1.900426 0.000002 0.000001 7.440694 17.525205 15.943678 -9.817972 -0.000003 -0.000006 2.173906 4.356018 0.172450 7.307762 2.426411 -1.880098 4.759397 -171.222529 181.164894 -188.642913 4.420187 -0.000011 -0.000006 -70.016740 8.460494 -115.201782 -0.000001 -0.000000 -10.347095 536.712877 -155.683343 -542.867588 -0.000001 0.000001 -12.496299 318.688348 160.818785 207.423898 -2.781496 -1.903796 5.072600 -181.638021 -187.349316 159.373175 -4.012104 0.000000 0.000004 -1.211317 33.263059 397.626675 -0.000009 -0.000002 -10.346607 -358.542557 -4.719858 -3.284111 -0.000003 -0.000001 -12.562609 1612.408003 546.383769 -531.495706 2.048004 -0.047201 -2.693194 486.467875 -17.386889 66.635046 -0.000001 0.000005 -18.824406 8.381481 164.125498 -91.857595 0.000001 -0.000001 -19.078201 -305.926140 -28.083540 43.673613 -2.129897 -0.022303 -2.538301 -467.224226 -35.078175 -82.298636 -0.000010 0.000000 -18.644600 -42.480464 -217.324216 123.233155 0.000003 -0.000001 -18.801401 172.197853 171.497594 159.622887
68.512604 32.123798 36.196278 -484.548154 28.934362 4.525411 -0.160404 1.629988 7.806302 -50.938400 21.986743 -0.859073 0.000012 0.000003 3.197992 20.058184 -8.374964 1.735320 -0.000002 0.000004 7.440697 20.121025 14.786437 -9.877158 -0.000009 0.000001 2.173905 4.955560 0.056659 7.972713 2.426401 -1.880099 4.759393 -172.487726 180.821581 -188.579269 4.420193 -0.000010 -0.000003 -72.888494 7.463977 -114.385991 -0.000010 0.000004 -10.347095 538.450423 -151.671645 -542.413845 -0.000006 0.000002 -12.496297 314.246349 162.132859 208.479134 -2.781504 -1.903795 5.072592 -182.076587 -187.161895 159.090310 -4.012099 -0.000001 -0.000003 -0.365275 33.004488 395.153354 0.000004 -0.000001 -10.346598 -358.926851 -5.025271 -3.422519 0.000000 0.000000 -12.562601 1614.447989 546.839807 -531.534501 2.047988 -0.047207 -2.693196 487.995487 -15.313819 67.266756 0.000000 -0.000001 -18.824408 5.438764 168.278758 -92.555190 0.000010 -0.000003 -19.078197 -302.216063 -28.245380 45.517470 -2.129906 -0.022306 -2.538305 -466.267344 -35.569235 -81.350722 0.000000 -0.000009 -18.644592 -45.345906 -219.248881 124.781737 -0.000007 -0.000006 -18.801401 173.798999 171.349898 162.555470
